#N canvas 720 182 450 300 10;
#X obj 96 40 inlet;
#X obj 194 40 inlet;
#X obj 290 39 inlet;
#X text 94 19 spigot;
#X text 198 19 note;
#X text 289 20 velocity;
#X obj 181 171 makenote;
#X obj 142 238 outlet;
#X obj 250 214 outlet;
#X obj 144 206 spigot;
#X obj 349 106 loadbang;
#X msg 308 135 100;
#X obj 366 34 inlet;
#X floatatom 289 105 5 0 0 0 - - -;
#X connect 0 0 9 1;
#X connect 1 0 6 0;
#X connect 2 0 6 1;
#X connect 6 0 9 0;
#X connect 6 1 8 0;
#X connect 9 0 7 0;
#X connect 10 0 11 0;
#X connect 11 0 6 2;
#X connect 12 0 13 0;
#X connect 13 0 6 2;
