#N canvas 585 216 647 522 10;
#X obj 239 82 poly 6 1;
#X obj 239 271 route 1 2 3 4 5 6;
#X floatatom 123 324 5 0 0 0 - - -;
#X floatatom 165 324 5 0 0 0 - - -;
#X floatatom 212 322 5 0 0 0 - - -;
#X floatatom 258 323 5 0 0 0 - - -;
#X floatatom 303 324 5 0 0 0 - - -;
#X floatatom 349 327 5 0 0 0 - - -;
#X obj 239 117 pack 0 0 0;
#X obj 122 378 pack 0 0 0 0 0 0 0;
#X obj 144 205 bng 15 250 50 0 empty empty empty 17 7 0 10 -262144
-1 -1;
#X msg 124 408 add \$2 \$3 \$4 \$5 \$6 \$7;
#X msg 98 299 0;
#X obj 137 35 inlet;
#X obj 229 34 inlet;
#X obj 139 455 outlet;
#X obj 251 456 outlet;
#X obj 326 427 delay 1;
#X obj 47 407 spigot;
#X obj 36 36 inlet;
#X obj 154 80 sel 0;
#X obj 149 127 change;
#X msg 80 78 2;
#X obj -56 261 print bangoso;
#X obj 205 133 print change;
#X floatatom 151 105 5 0 0 0 - - -;
#X obj 146 163 sel 0;
#X obj 97 274 delay 100;
#X connect 0 0 8 0;
#X connect 0 1 8 1;
#X connect 0 2 8 2;
#X connect 1 0 2 0;
#X connect 1 1 3 0;
#X connect 1 2 4 0;
#X connect 1 3 5 0;
#X connect 1 4 6 0;
#X connect 1 5 7 0;
#X connect 2 0 9 1;
#X connect 3 0 9 2;
#X connect 4 0 9 3;
#X connect 5 0 9 4;
#X connect 6 0 9 5;
#X connect 7 0 9 6;
#X connect 8 0 1 0;
#X connect 9 0 11 0;
#X connect 10 0 9 0;
#X connect 10 0 17 0;
#X connect 10 0 23 0;
#X connect 10 0 27 0;
#X connect 11 0 18 0;
#X connect 12 0 2 0;
#X connect 12 0 3 0;
#X connect 12 0 4 0;
#X connect 12 0 5 0;
#X connect 12 0 6 0;
#X connect 12 0 7 0;
#X connect 13 0 0 0;
#X connect 14 0 0 1;
#X connect 14 0 20 0;
#X connect 17 0 16 0;
#X connect 18 0 15 0;
#X connect 19 0 18 1;
#X connect 20 0 25 0;
#X connect 21 0 24 0;
#X connect 21 0 26 0;
#X connect 22 0 21 0;
#X connect 25 0 21 0;
#X connect 26 0 10 0;
#X connect 27 0 12 0;
#X connect 27 0 22 0;
